<?xml version="1.0" encoding="UTF-8" standalone="no"?>
<!-- Created with Inkscape (http://www.inkscape.org/) -->

<svg
   xmlns:sketch="http://www.bohemiancoding.com/sketch/ns"
   xmlns:dc="http://purl.org/dc/elements/1.1/"
   xmlns:cc="http://creativecommons.org/ns#"
   xmlns:rdf="http://www.w3.org/1999/02/22-rdf-syntax-ns#"
   xmlns:svg="http://www.w3.org/2000/svg"
   xmlns="http://www.w3.org/2000/svg"
   xmlns:sodipodi="http://sodipodi.sourceforge.net/DTD/sodipodi-0.dtd"
   xmlns:inkscape="http://www.inkscape.org/namespaces/inkscape"
   width="183.64809mm"
   height="101.60265mm"
   viewBox="0 0 183.64809 101.60265"
   version="1.1"
   id="svg5719"
   inkscape:version="0.92.2 (5c3e80d, 2017-08-06)"
   preserveAspectRatio="false"
   sodipodi:docname="laptop.svg">
  <defs
     id="defs5713" />
  <sodipodi:namedview
     id="base"
     pagecolor="#ffffff"
     bordercolor="#666666"
     borderopacity="1.0"
     inkscape:pageopacity="0.0"
     inkscape:pageshadow="2"
     inkscape:zoom="0.35"
     inkscape:cx="-561.51993"
     inkscape:cy="69.147855"
     inkscape:document-units="mm"
     inkscape:current-layer="layer1"
     showgrid="false"
     fit-margin-top="0"
     fit-margin-left="0"
     fit-margin-right="0"
     fit-margin-bottom="0"
     inkscape:window-width="2560"
     inkscape:window-height="1017"
     inkscape:window-x="1432"
     inkscape:window-y="1072"
     inkscape:window-maximized="1" />
  <metadata
     id="metadata5716">
    <rdf:RDF>
      <cc:Work
         rdf:about="">
        <dc:format>image/svg+xml</dc:format>
        <dc:type
           rdf:resource="http://purl.org/dc/dcmitype/StillImage" />
        <dc:title />
      </cc:Work>
    </rdf:RDF>
  </metadata>
  <g
     inkscape:label="Layer 1"
     inkscape:groupmode="layer"
     id="layer1"
     transform="translate(-8.7176247,-65.526059)">
    <g
       style="stroke:#8492a5"
       id="Laptop"
       sketch:type="MSLayerGroup"
       transform="matrix(0.26458333,0,0,0.26458333,8.982208,65.790642)">
      <path
         style="fill:#fefefe;stroke-width:2"
         inkscape:connector-curvature="0"
         d="M 594,0 H 98 C 84.50415,0 73,11.073818 73,24.790113 V 351.02799 l 546,-10e-6 V 24.790113 C 618.99997,11.072821 607.53748,0 594,0 Z"
         id="path14"
         sketch:type="MSShapeGroup" />
      <circle
         style="stroke-width:2"
         id="webcam"
         sketch:type="MSShapeGroup"
         cx="347"
         cy="19"
         r="4" />
      <g
         id="bottom"
         transform="translate(0,351)"
         sketch:type="MSShapeGroup">
        <path
           style="fill:#fdfdfd;stroke-width:2"
           inkscape:connector-curvature="0"
           d="M 640.812,31.01 H 51.288 C 20.641,31.01 0,20.494 0,16.022 V 2.428 C 0,1.084 1.335,0 2.995,0 h 686.109 c 1.662,0 2.999,1.084 2.999,2.428 v 14.129 c -0.007,3.535 -15.991,14.453 -51.291,14.453 z"
           id="Shape" />
        <path
           style="stroke-linecap:square"
           inkscape:connector-curvature="0"
           d="M 0.5,14.5 H 690.24268"
           id="Line" />
      </g>
      <path
         style="fill:#ffffff"
         inkscape:connector-curvature="0"
         d="m 421,352 v 3.087 c 0,2.201 -4.33328,2.86571 -7.61328,2.86571 H 278.81529 C 275.36429,357.95271 271,357.289 271,355.087 V 352"
         id="touchpad"
         sketch:type="MSShapeGroup" />
    </g>
  </g>
</svg>
